<mxfile host="app.diagrams.net" modified="2023-06-23T03:10:33.274Z" agent="Mozilla/5.0 (Windows NT 10.0; Win64; x64) AppleWebKit/537.36 (KHTML, like Gecko) Chrome/111.0.0.0 Safari/537.36 Edg/111.0.1661.62" version="21.5.0" etag="achbL9qFV4TczkvYCIb6" type="github">
  <diagram name="Page-1" id="w8zUnocSbnGf0amtUn_I">
    <mxGraphModel>
      <root>
        <mxCell id="0" />
        <mxCell id="1" parent="0" />
      </root>
    </mxGraphModel>
  </diagram>
</mxfile>
